<svg width="1024" height="1024" viewBox="0 0 1024 1024" fill="none" xmlns="http://www.w3.org/2000/svg">
<g clip-path="url(#clip0_2004_104)">
<path d="M1024 820H922V922H820V1024H0V0H1024V820Z" fill="white"/>
<path d="M467.398 240.933C467.398 236.641 463.545 233.381 459.326 234.1L351.759 252.403C348.433 252.968 346 255.856 346 259.236V784.069C346 787.895 349.097 791 352.917 791H460.481C464.303 791 467.398 787.895 467.398 784.069V587.604C467.398 527.751 499.069 490.675 525.46 490.675C549.212 490.675 556.073 514.512 556.073 550.528V784.069C556.073 787.895 559.168 791 562.99 791H671.083C674.905 791 678 787.895 678 784.069V533.05C678 451.481 647.387 399.042 567.686 399.042C535.697 399.042 504.478 406.761 479.606 423.846C474.667 427.239 467.398 423.898 467.398 417.893V240.933Z" fill="black"/>
</g>
<defs>
<clipPath id="clip0_2004_104">
<rect width="1024" height="1024" rx="200" fill="white"/>
</clipPath>
</defs>
</svg>
